<svg xmlns="http://www.w3.org/2000/svg" viewBox="0 0 1366 497"><defs><style>.cls-1{fill:#2d2d2d}.cls-2{fill:#545454}.cls-3{fill:#3f3f3f}.cls-17,.cls-18,.cls-4,.cls-6{fill:none;stroke-miterlimit:10}.cls-4,.cls-6{stroke:#777}.cls-5{fill:#777}.cls-6{stroke-width:.5px}.cls-7{fill:#3a3a3a}.cls-8{fill:#5b5b5b}.cls-9{fill:#2b2b2b}.cls-10{fill:#c4c4c4}.cls-11{fill:#a3a3a3}.cls-12{fill:#d3d3d3}.cls-13{fill:#474747}.cls-14{fill:#232323}.cls-15{fill:#515151}.cls-16{fill:#505150}.cls-17{stroke:#a5a5a5}.cls-18{stroke:#5b5b5b}</style></defs><g id="Layer_3" data-name="Layer 3"><path d="M3,92C1.69,92,.39,92-.92,92V497.2H400.93c0-2.4.07-4.79.07-7.2C401,270.19,222.81,92,3,92Z" class="cls-1"/><ellipse cx="1192" cy="138.22" class="cls-2" rx="18.36" ry="19.28"/><circle cx="1192.46" cy="115.72" r="8.72" class="cls-3"/><line x1="1192.27" x2="1192.17" y1="139.78" y2="177.32" class="cls-4"/><line x1="1200.91" x2="1192.37" y1="148.96" y2="154.83" class="cls-4"/><line x1="1199.83" x2="1192.37" y1="138.16" y2="147.16" class="cls-4"/><path d="M1367.44,106.4c-209.41,9.09-376.84,180-380.38,390.8h380.38Z" class="cls-1"/><path d="M638.22,497.2C628.13,368.94,520.85,268,390,268S151.87,368.94,141.78,497.2Z" class="cls-5"/><ellipse cx="883" cy="273.22" class="cls-2" rx="18.36" ry="19.28"/><circle cx="883.46" cy="250.72" r="8.72" class="cls-3"/><line x1="883.27" x2="883.17" y1="274.78" y2="312.32" class="cls-4"/><line x1="1192.17" x2="1186.87" y1="151.38" y2="145.18" class="cls-4"/><line x1="891.91" x2="883.37" y1="283.96" y2="289.83" class="cls-4"/><line x1="890.83" x2="883.37" y1="273.16" y2="282.16" class="cls-4"/><line x1="883.17" x2="877.87" y1="286.38" y2="280.18" class="cls-4"/><polygon points="364.1 223.27 376.1 266.6 352.1 266.6 364.1 223.27" class="cls-3"/><line x1="364.17" x2="364.5" y1="250.6" y2="277.5" class="cls-6"/><line x1="368.25" x2="364.25" y1="256.71" y2="261.57" class="cls-6"/><line x1="369.41" x2="364.25" y1="249.72" y2="255.75" class="cls-6"/><line x1="364.17" x2="360.09" y1="259.04" y2="254.38" class="cls-6"/><path d="M1251.22,497C1241.13,368.74,1133.85,267.8,1003,267.8S764.87,368.74,754.78,497Z" class="cls-5"/><rect width="28.49" height="44.03" x="644.75" y="338.97" class="cls-5"/><rect width="28.49" height="2.59" x="644.75" y="338.97" class="cls-7"/><rect width="5.18" height="5.3" x="647.34" y="342.73" class="cls-8"/><rect width="5.18" height="5.3" x="656.41" y="342.73" class="cls-9"/><rect width="5.18" height="5.3" x="665.48" y="342.73" class="cls-3"/><rect width="14.25" height="5.3" x="647.34" y="349.21" class="cls-10"/><rect width="5.18" height="5.3" x="647.34" y="356.98" class="cls-3"/><rect width="5.18" height="5.3" x="656.41" y="356.98" class="cls-3"/><rect width="5.18" height="12.95" x="665.48" y="349.33" class="cls-3"/><rect width="5.18" height="5.3" x="647.34" y="364.75" class="cls-3"/><rect width="5.18" height="5.3" x="656.41" y="364.75" class="cls-3"/><rect width="5.18" height="5.3" x="665.48" y="364.75" class="cls-3"/><path d="M677.13,312.42a3.81,3.81,0,0,1-.39,1.71,3,3,0,0,1,.39,1.53,2.63,2.63,0,0,1-1.31,2.44.34.34,0,0,1,0,.15,2.6,2.6,0,0,1-2.59,2.59h0c-.18,2.18-1.27,3.88-2.56,3.88s-2.59-2-2.59-4.53c0-.22,0-.44,0-.65h0c-1.43,0-2.59-1.45-2.59-3.24a3.77,3.77,0,0,1,.59-2.06,3.22,3.22,0,0,1-1.89-3.12c0-1.78,1.17-3.23,2.59-3.23h.07a3.5,3.5,0,0,1-.07-.65,3.23,3.23,0,0,1,6.42-.57,3.19,3.19,0,0,1,.7-.08,3.24,3.24,0,0,1,3.24,3.24,3.41,3.41,0,0,1-.24,1.23A3.78,3.78,0,0,1,677.13,312.42Z" class="cls-11"/><path d="M860.09,498a174,174,0,0,0-344.18,0Z" class="cls-12"/><rect width="5.18" height="11.66" x="668.07" y="323.43" class="cls-7"/><polygon points="659 322.16 638.87 340.26 679.13 340.26 659 322.16" class="cls-13"/></g><g id="Layer_2" data-name="Layer 2"><circle cx="60.31" cy="34.39" r="24.89" class="cls-3"/><ellipse cx="60.5" cy="189.5" class="cls-14" rx="23" ry="7"/><ellipse cx="276" cy="370" class="cls-14" rx="23" ry="7"/><ellipse cx="588" cy="426" class="cls-15" rx="23" ry="7"/><ellipse cx="755" cy="464" class="cls-15" rx="23" ry="7"/><ellipse cx="1305" cy="203" class="cls-14" rx="23" ry="7"/><ellipse cx="1029" cy="358" class="cls-3" rx="23" ry="7"/><ellipse cx="59" cy="98.59" class="cls-3" rx="52.41" ry="55.03"/><line x1="60.31" x2="60.31" y1="95.97" y2="189" class="cls-4"/><line x1="78.65" x2="60.68" y1="123.49" y2="145.37" class="cls-4"/><line x1="83.89" x2="60.68" y1="92.04" y2="119.17" class="cls-4"/><polygon points="274 141 328 336 220 336 274 141" class="cls-16"/><line x1="60.31" x2="41.97" y1="133.97" y2="113.01" class="cls-4"/><line x1="275.31" x2="275.31" y1="274.97" y2="368" class="cls-17"/><line x1="293.65" x2="275.68" y1="302.49" y2="324.37" class="cls-17"/><line x1="298.89" x2="275.68" y1="271.04" y2="298.17" class="cls-17"/><line x1="275.31" x2="256.97" y1="312.97" y2="292.01" class="cls-17"/><ellipse cx="588" cy="356.61" class="cls-2" rx="34" ry="35.7"/><circle cx="588.85" cy="314.96" r="16.15" class="cls-3"/><line x1="588.5" x2="588.31" y1="359.5" y2="429" class="cls-4"/><line x1="604.5" x2="588.68" y1="376.5" y2="387.37" class="cls-4"/><line x1="602.5" x2="588.68" y1="356.5" y2="373.17" class="cls-4"/><line x1="588.31" x2="578.5" y1="380.97" y2="369.5" class="cls-4"/><polygon points="755 248 809 443 701 443 755 248" class="cls-3"/><line x1="755.31" x2="755.31" y1="370.97" y2="464" class="cls-4"/><line x1="773.65" x2="755.68" y1="398.49" y2="420.37" class="cls-4"/><line x1="778.89" x2="755.68" y1="367.04" y2="394.17" class="cls-4"/><line x1="755.31" x2="736.97" y1="408.97" y2="388.01" class="cls-4"/><circle cx="1029.31" cy="203.39" r="24.89" class="cls-3"/><ellipse cx="1028" cy="267.59" class="cls-3" rx="52.41" ry="55.03"/><line x1="1029.31" x2="1029.31" y1="264.97" y2="358" class="cls-18"/><line x1="1047.65" x2="1029.68" y1="292.49" y2="314.37" class="cls-4"/><line x1="1052.89" x2="1029.68" y1="261.04" y2="288.17" class="cls-4"/><line x1="1029.31" x2="1010.97" y1="302.97" y2="282.01" class="cls-4"/><circle cx="1305.31" cy="48.39" r="24.89" class="cls-3"/><ellipse cx="1304" cy="112.59" class="cls-3" rx="52.41" ry="55.03"/><line x1="1305.31" x2="1305.31" y1="109.97" y2="203" class="cls-4"/><line x1="1323.65" x2="1305.68" y1="137.49" y2="159.37" class="cls-4"/><line x1="1328.89" x2="1305.68" y1="106.04" y2="133.17" class="cls-4"/><line x1="1305.31" x2="1286.97" y1="147.97" y2="127.01" class="cls-4"/></g></svg>