<svg xmlns="http://www.w3.org/2000/svg" viewBox="0 0 111.33 30.49"><defs><style>.cls-1{fill:#515151;}</style></defs><g id="Layer_2" data-name="Layer 2"><g id="Layer_2-2" data-name="Layer 2"><path class="cls-1" d="M1.45,3a101.29,101.29,0,0,1,47,11.82c7.4,3.94,14.25,8.78,21.44,13.06,1.64,1,3.48,2.39,5.43,2.59s3.17-.84,4.35-2.1A67.33,67.33,0,0,1,88,20.84,64.57,64.57,0,0,1,110.27,10a1.5,1.5,0,0,0-.8-2.89A67,67,0,0,0,80.88,23c-1.27,1.18-2.43,2.46-3.66,3.69-.66.67-1.19,1-2.13.69a17.53,17.53,0,0,1-2.85-1.56c-7.21-4.25-14.06-9.1-21.42-13.1a103.51,103.51,0,0,0-22.27-9A104.72,104.72,0,0,0,1.45,0a1.5,1.5,0,0,0,0,3Z"/></g></g></svg>